<mxfile host="app.diagrams.net" modified="2024-05-14T11:15:24.853Z" agent="Mozilla/5.0 (Windows NT 10.0; Win64; x64) AppleWebKit/537.36 (KHTML, like Gecko) Chrome/124.0.0.0 Safari/537.36 Edg/124.0.0.0" etag="b0zXco4W64RpYM9AXLKH" version="24.4.0" type="device">
  <diagram id="Lxa181KEiLVa6utRU_Rn" name="第 1 页">
    <mxGraphModel dx="1774" dy="813" grid="1" gridSize="10" guides="1" tooltips="1" connect="1" arrows="1" fold="1" page="1" pageScale="1" pageWidth="3300" pageHeight="4681" math="0" shadow="0">
      <root>
        <mxCell id="0" />
        <mxCell id="1" parent="0" />
        <mxCell id="trxvL033FlDiKAkXJnke-5" value="Order" style="swimlane;fontStyle=1;align=center;verticalAlign=top;childLayout=stackLayout;horizontal=1;startSize=26;horizontalStack=0;resizeParent=1;resizeParentMax=0;resizeLast=0;collapsible=1;marginBottom=0;whiteSpace=wrap;html=1;" parent="1" vertex="1">
          <mxGeometry x="680" y="120" width="230" height="278" as="geometry" />
        </mxCell>
        <mxCell id="trxvL033FlDiKAkXJnke-6" value="&lt;div&gt;&lt;font style=&quot;font-size: 14px;&quot;&gt;-&amp;nbsp; studentId :String&lt;/font&gt;&lt;/div&gt;&lt;font style=&quot;font-size: 14px;&quot;&gt;-&amp;nbsp; orderId: String&lt;/font&gt;&lt;div&gt;&lt;font size=&quot;3&quot;&gt;-&amp;nbsp; status: String&lt;/font&gt;&lt;/div&gt;&lt;div&gt;&lt;font size=&quot;3&quot;&gt;-&amp;nbsp; newStatus:String&lt;br&gt;&lt;/font&gt;&lt;div&gt;&lt;font size=&quot;3&quot;&gt;-&amp;nbsp; &amp;nbsp;ordermess:String&lt;/font&gt;&lt;/div&gt;&lt;/div&gt;&lt;div&gt;&lt;br&gt;&lt;/div&gt;" style="text;strokeColor=none;fillColor=none;align=left;verticalAlign=top;spacingLeft=4;spacingRight=4;overflow=hidden;rotatable=0;points=[[0,0.5],[1,0.5]];portConstraint=eastwest;whiteSpace=wrap;html=1;" parent="trxvL033FlDiKAkXJnke-5" vertex="1">
          <mxGeometry y="26" width="230" height="134" as="geometry" />
        </mxCell>
        <mxCell id="trxvL033FlDiKAkXJnke-7" value="" style="line;strokeWidth=1;fillColor=none;align=left;verticalAlign=middle;spacingTop=-1;spacingLeft=3;spacingRight=3;rotatable=0;labelPosition=right;points=[];portConstraint=eastwest;strokeColor=inherit;" parent="trxvL033FlDiKAkXJnke-5" vertex="1">
          <mxGeometry y="160" width="230" height="8" as="geometry" />
        </mxCell>
        <mxCell id="SoKydbFPhLWMJiZauXh9-25" value="" style="endArrow=none;html=1;rounded=0;entryX=1.006;entryY=0.07;entryDx=0;entryDy=0;entryPerimeter=0;" edge="1" parent="trxvL033FlDiKAkXJnke-5" target="SoKydbFPhLWMJiZauXh9-21">
          <mxGeometry width="50" height="50" relative="1" as="geometry">
            <mxPoint y="200" as="sourcePoint" />
            <mxPoint x="50" y="150" as="targetPoint" />
          </mxGeometry>
        </mxCell>
        <mxCell id="trxvL033FlDiKAkXJnke-8" value="&lt;span style=&quot;color: rgb(5, 7, 59); background-color: rgb(253, 253, 254);&quot;&gt;&lt;font face=&quot;Helvetica&quot; style=&quot;font-size: 14px;&quot;&gt;+&amp;nbsp; Order Status Check(orderId)&lt;/font&gt;&lt;/span&gt;&lt;div&gt;&lt;span style=&quot;color: rgb(5, 7, 59); background-color: rgb(253, 253, 254);&quot;&gt;&lt;font size=&quot;3&quot; face=&quot;Helvetica&quot; style=&quot;&quot;&gt;+&amp;nbsp; setStatus(newStatus)&lt;/font&gt;&lt;/span&gt;&lt;/div&gt;" style="text;strokeColor=none;fillColor=none;align=left;verticalAlign=top;spacingLeft=4;spacingRight=4;overflow=hidden;rotatable=0;points=[[0,0.5],[1,0.5]];portConstraint=eastwest;whiteSpace=wrap;html=1;" parent="trxvL033FlDiKAkXJnke-5" vertex="1">
          <mxGeometry y="168" width="230" height="110" as="geometry" />
        </mxCell>
        <mxCell id="SoKydbFPhLWMJiZauXh9-1" value="&lt;p style=&quot;margin:0px;margin-top:4px;text-align:center;&quot;&gt;&lt;b&gt;o&lt;/b&gt;&lt;span style=&quot;color: rgba(0, 0, 0, 0); font-family: monospace; font-size: 0px; text-wrap: nowrap; background-color: initial; text-align: left;&quot;&gt;%3CmxGraphModel%3E%3Croot%3E%3CmxCell%20id%3D%220%22%2F%3E%3CmxCell%20id%3D%221%22%20parent%3D%220%22%2F%3E%3CmxCell%20id%3D%222%22%20value%3D%22%26lt%3Bp%20style%3D%26quot%3Bmargin%3A0px%3Bmargin-top%3A4px%3Btext-align%3Acenter%3B%26quot%3B%26gt%3B%26lt%3Bb%26gt%3BClass%26lt%3B%2Fb%26gt%3B%26lt%3B%2Fp%26gt%3B%26lt%3Bhr%20size%3D%26quot%3B1%26quot%3B%20style%3D%26quot%3Bborder-style%3Asolid%3B%26quot%3B%2F%26gt%3B%26lt%3Bp%20style%3D%26quot%3Bmargin%3A0px%3Bmargin-left%3A4px%3B%26quot%3B%26gt%3B%2B%20field%3A%20Type%26lt%3B%2Fp%26gt%3B%26lt%3Bhr%20size%3D%26quot%3B1%26quot%3B%20style%3D%26quot%3Bborder-style%3Asolid%3B%26quot%3B%2F%26gt%3B%26lt%3Bp%20style%3D%26quot%3Bmargin%3A0px%3Bmargin-left%3A4px%3B%26quot%3B%26gt%3B%2B%20method()%3A%20Type%26lt%3B%2Fp%26gt%3B%22%20style%3D%22verticalAlign%3Dtop%3Balign%3Dleft%3Boverflow%3Dfill%3Bhtml%3D1%3BwhiteSpace%3Dwrap%3B%22%20vertex%3D%221%22%20parent%3D%221%22%3E%3CmxGeometry%20x%3D%22630%22%20y%3D%2290%22%20width%3D%22160%22%20height%3D%2290%22%20as%3D%22geometry%22%2F%3E%3C%2FmxCell%3E%3C%2Froot%3E%3C%2FmxGraphModel%3E&lt;/span&gt;&lt;b style=&quot;background-color: initial;&quot;&gt;rderIndex&lt;/b&gt;&lt;/p&gt;&lt;hr size=&quot;1&quot; style=&quot;border-style:solid;&quot;&gt;&lt;p style=&quot;margin:0px;margin-left:4px;&quot;&gt;+&amp;nbsp;&lt;/p&gt;&lt;hr size=&quot;1&quot; style=&quot;border-style:solid;&quot;&gt;&lt;p style=&quot;margin:0px;margin-left:4px;&quot;&gt;&lt;br&gt;&lt;/p&gt;" style="verticalAlign=top;align=left;overflow=fill;html=1;whiteSpace=wrap;" vertex="1" parent="1">
          <mxGeometry x="1450" y="50" width="270" height="120" as="geometry" />
        </mxCell>
        <mxCell id="SoKydbFPhLWMJiZauXh9-2" value="&lt;p style=&quot;margin:0px;margin-top:4px;text-align:center;&quot;&gt;&lt;span style=&quot;background-color: rgb(253, 253, 254); color: rgb(5, 7, 59); font-family: -apple-system, BlinkMacSystemFont, &amp;quot;Segoe UI&amp;quot;, Roboto, Ubuntu, &amp;quot;Helvetica Neue&amp;quot;, Helvetica, Arial, &amp;quot;PingFang SC&amp;quot;, &amp;quot;Hiragino Sans GB&amp;quot;, &amp;quot;Microsoft YaHei UI&amp;quot;, &amp;quot;Microsoft YaHei&amp;quot;, &amp;quot;Source Han Sans CN&amp;quot;, sans-serif, &amp;quot;Apple Color Emoji&amp;quot;, &amp;quot;Segoe UI Emoji&amp;quot;; text-align: start; font-size: 15px;&quot;&gt;after-salesApplication&lt;/span&gt;&lt;span style=&quot;text-wrap: nowrap; background-color: initial; color: rgba(0, 0, 0, 0); font-family: monospace; text-align: start; font-size: 0px;&quot;&gt;%3CmxGraphModel%3E%3Croot%3E%3CmxCell%20id%3D%220%22%2F%3E%3CmxCell%20id%3D%221%22%20parent%3D%220%22%2F%3E%3CmxCell%20id%3D%222%22%20value%3D%22%26amp%3Blt%3B%26amp%3Blt%3Binterface%26amp%3Bgt%3B%26amp%3Bgt%3B%26lt%3Bdiv%26gt%3B%3AorderIndex%26lt%3B%2Fdiv%26gt%3B%22%20style%3D%22rounded%3D0%3BwhiteSpace%3Dwrap%3Bhtml%3D1%3B%22%20vertex%3D%221%22%20parent%3D%221%22%3E%3CmxGeometry%20x%3D%22141.25%22%20y%3D%2260%22%20width%3D%22120%22%20height%3D%2240%22%20as%3D%22geometry%22%2F%3E%3C%2FmxCell%3E%3C%2Froot%3E%3C%2FmxGraphModel%3E&lt;/span&gt;&lt;br&gt;&lt;/p&gt;&lt;hr size=&quot;1&quot; style=&quot;border-style:solid;&quot;&gt;&lt;p style=&quot;margin:0px;margin-left:4px;&quot;&gt;&lt;font style=&quot;font-size: 14px;&quot;&gt;-&amp;nbsp; &amp;nbsp;applyTime:String&lt;/font&gt;&lt;/p&gt;&lt;p style=&quot;margin:0px;margin-left:4px;&quot;&gt;&lt;font size=&quot;3&quot;&gt;-&amp;nbsp; &amp;nbsp;applyMess:String&lt;/font&gt;&lt;/p&gt;&lt;p style=&quot;margin:0px;margin-left:4px;&quot;&gt;&lt;font size=&quot;3&quot;&gt;-&amp;nbsp; &amp;nbsp;newstatus:String&lt;/font&gt;&lt;/p&gt;&lt;p style=&quot;margin:0px;margin-left:4px;&quot;&gt;&lt;font size=&quot;3&quot;&gt;&lt;br&gt;&lt;/font&gt;&lt;/p&gt;&lt;hr size=&quot;1&quot; style=&quot;border-style:solid;&quot;&gt;&lt;p style=&quot;margin:0px;margin-left:4px;&quot;&gt;&lt;span style=&quot;text-align: center;&quot;&gt;&lt;font size=&quot;3&quot;&gt;+&amp;nbsp; create(studentId,orderId,orderness)&lt;/font&gt;&lt;/span&gt;&lt;br&gt;&lt;/p&gt;&lt;p style=&quot;margin:0px;margin-left:4px;&quot;&gt;&lt;span style=&quot;text-align: center;&quot;&gt;&lt;font size=&quot;3&quot;&gt;&lt;br&gt;&lt;/font&gt;&lt;/span&gt;&lt;/p&gt;" style="verticalAlign=top;align=left;overflow=fill;html=1;whiteSpace=wrap;" vertex="1" parent="1">
          <mxGeometry x="190" y="70" width="280" height="180" as="geometry" />
        </mxCell>
        <mxCell id="SoKydbFPhLWMJiZauXh9-3" value="&lt;p style=&quot;margin:0px;margin-top:4px;text-align:center;&quot;&gt;&lt;b&gt;orderShow&lt;/b&gt;&lt;/p&gt;&lt;hr size=&quot;1&quot; style=&quot;border-style:solid;&quot;&gt;&lt;p style=&quot;margin:0px;margin-left:4px;&quot;&gt;+&amp;nbsp;&lt;/p&gt;&lt;hr size=&quot;1&quot; style=&quot;border-style:solid;&quot;&gt;&lt;p style=&quot;margin:0px;margin-left:4px;&quot;&gt;+&amp;nbsp;&lt;/p&gt;" style="verticalAlign=top;align=left;overflow=fill;html=1;whiteSpace=wrap;" vertex="1" parent="1">
          <mxGeometry x="1450" y="290" width="270" height="120" as="geometry" />
        </mxCell>
        <mxCell id="SoKydbFPhLWMJiZauXh9-4" value="" style="endArrow=none;dashed=1;html=1;dashPattern=1 3;strokeWidth=2;rounded=0;" edge="1" parent="1" source="SoKydbFPhLWMJiZauXh9-1">
          <mxGeometry width="50" height="50" relative="1" as="geometry">
            <mxPoint x="1379.2893218813451" y="160" as="sourcePoint" />
            <mxPoint x="1400" y="110" as="targetPoint" />
          </mxGeometry>
        </mxCell>
        <mxCell id="SoKydbFPhLWMJiZauXh9-5" value="" style="endArrow=none;dashed=1;html=1;dashPattern=1 3;strokeWidth=2;rounded=0;" edge="1" parent="1">
          <mxGeometry width="50" height="50" relative="1" as="geometry">
            <mxPoint x="1400" y="350" as="sourcePoint" />
            <mxPoint x="1450" y="350" as="targetPoint" />
          </mxGeometry>
        </mxCell>
        <mxCell id="SoKydbFPhLWMJiZauXh9-6" value="" style="endArrow=none;dashed=1;html=1;dashPattern=1 3;strokeWidth=2;rounded=0;" edge="1" parent="1">
          <mxGeometry width="50" height="50" relative="1" as="geometry">
            <mxPoint x="1400" y="350" as="sourcePoint" />
            <mxPoint x="1400" y="110" as="targetPoint" />
          </mxGeometry>
        </mxCell>
        <mxCell id="SoKydbFPhLWMJiZauXh9-7" value="" style="endArrow=none;dashed=1;html=1;dashPattern=1 3;strokeWidth=2;rounded=0;" edge="1" parent="1">
          <mxGeometry width="50" height="50" relative="1" as="geometry">
            <mxPoint x="1320" y="230" as="sourcePoint" />
            <mxPoint x="1400" y="230" as="targetPoint" />
          </mxGeometry>
        </mxCell>
        <mxCell id="SoKydbFPhLWMJiZauXh9-8" value="" style="endArrow=classic;html=1;rounded=0;" edge="1" parent="1">
          <mxGeometry width="50" height="50" relative="1" as="geometry">
            <mxPoint x="1330" y="230" as="sourcePoint" />
            <mxPoint x="1320" y="230" as="targetPoint" />
          </mxGeometry>
        </mxCell>
        <mxCell id="SoKydbFPhLWMJiZauXh9-10" value="&lt;p style=&quot;margin:0px;margin-top:4px;text-align:center;&quot;&gt;&lt;font style=&quot;font-size: 14px;&quot; face=&quot;Helvetica&quot;&gt;&lt;b&gt;o&lt;/b&gt;&lt;span style=&quot;color: rgba(0, 0, 0, 0); text-wrap: nowrap; background-color: initial; text-align: left; font-size: 0px;&quot;&gt;%3CmxGraphModel%3E%3Croot%3E%3CmxCell%20id%3D%220%22%2F%3E%3CmxCell%20id%3D%221%22%20parent%3D%220%22%2F%3E%3CmxCell%20id%3D%222%22%20value%3D%22%26lt%3Bp%20style%3D%26quot%3Bmargin%3A0px%3Bmargin-top%3A4px%3Btext-align%3Acenter%3B%26quot%3B%26gt%3B%26lt%3Bb%26gt%3BClass%26lt%3B%2Fb%26gt%3B%26lt%3B%2Fp%26gt%3B%26lt%3Bhr%20size%3D%26quot%3B1%26quot%3B%20style%3D%26quot%3Bborder-style%3Asolid%3B%26quot%3B%2F%26gt%3B%26lt%3Bp%20style%3D%26quot%3Bmargin%3A0px%3Bmargin-left%3A4px%3B%26quot%3B%26gt%3B%2B%20field%3A%20Type%26lt%3B%2Fp%26gt%3B%26lt%3Bhr%20size%3D%26quot%3B1%26quot%3B%20style%3D%26quot%3Bborder-style%3Asolid%3B%26quot%3B%2F%26gt%3B%26lt%3Bp%20style%3D%26quot%3Bmargin%3A0px%3Bmargin-left%3A4px%3B%26quot%3B%26gt%3B%2B%20method()%3A%20Type%26lt%3B%2Fp%26gt%3B%22%20style%3D%22verticalAlign%3Dtop%3Balign%3Dleft%3Boverflow%3Dfill%3Bhtml%3D1%3BwhiteSpace%3Dwrap%3B%22%20vertex%3D%221%22%20parent%3D%221%22%3E%3CmxGeometry%20x%3D%22630%22%20y%3D%2290%22%20width%3D%22160%22%20height%3D%2290%22%20as%3D%22geometry%22%2F%3E%3C%2FmxCell%3E%3C%2Froot%3E%3C%2FmxGraphModel%3E&lt;/span&gt;&lt;b style=&quot;background-color: initial;&quot;&gt;rderController&lt;/b&gt;&lt;/font&gt;&lt;/p&gt;&lt;hr size=&quot;1&quot; style=&quot;border-style:solid;&quot;&gt;&lt;p style=&quot;margin:0px;margin-left:4px;&quot;&gt;&lt;font face=&quot;RY7z2Xwn7kv8BznoPx8B&quot;&gt;+&amp;nbsp;&lt;/font&gt;&lt;/p&gt;&lt;hr size=&quot;1&quot; style=&quot;border-style:solid;&quot;&gt;&lt;p style=&quot;margin:0px;margin-left:4px;&quot;&gt;&lt;font face=&quot;RY7z2Xwn7kv8BznoPx8B&quot; style=&quot;&quot;&gt;&lt;span style=&quot;text-align: center;&quot;&gt;&lt;font style=&quot;font-size: 16px;&quot;&gt;+&amp;nbsp; showOrder(studentId,orderId)&lt;/font&gt;&lt;/span&gt;&lt;br&gt;&lt;/font&gt;&lt;/p&gt;&lt;p style=&quot;margin:0px;margin-left:4px;&quot;&gt;&lt;span style=&quot;text-align: center;&quot;&gt;&lt;font style=&quot;font-size: 14px;&quot; face=&quot;RY7z2Xwn7kv8BznoPx8B&quot;&gt;&lt;br&gt;&lt;/font&gt;&lt;/span&gt;&lt;/p&gt;&lt;p style=&quot;margin: 0px 0px 0px 4px;&quot;&gt;&lt;span style=&quot;text-align: center; background-color: initial;&quot;&gt;&lt;font face=&quot;RY7z2Xwn7kv8BznoPx8B&quot; size=&quot;3&quot;&gt;+&amp;nbsp; Apply(srudentId,orderId,orderness)&lt;/font&gt;&lt;/span&gt;&lt;/p&gt;&lt;p style=&quot;margin: 0px 0px 0px 4px;&quot;&gt;&lt;span style=&quot;text-align: center; background-color: initial;&quot;&gt;&lt;font face=&quot;RY7z2Xwn7kv8BznoPx8B&quot; size=&quot;3&quot;&gt;&lt;br&gt;&lt;/font&gt;&lt;/span&gt;&lt;/p&gt;&lt;p style=&quot;margin: 0px 0px 0px 4px;&quot;&gt;&lt;font face=&quot;RY7z2Xwn7kv8BznoPx8B&quot; size=&quot;3&quot;&gt;&lt;span style=&quot;text-align: center; background-color: initial;&quot;&gt;+&amp;nbsp;&amp;nbsp;&lt;/span&gt;&lt;span style=&quot;text-align: center; background-color: initial;&quot;&gt;withdrawApplication&lt;/span&gt;&lt;span style=&quot;text-align: center; background-color: initial;&quot;&gt;(studentId,orderId)&lt;/span&gt;&lt;/font&gt;&lt;/p&gt;&lt;p style=&quot;margin: 0px 0px 0px 4px;&quot;&gt;&lt;font face=&quot;RY7z2Xwn7kv8BznoPx8B&quot; size=&quot;3&quot;&gt;&lt;span style=&quot;text-align: center; background-color: initial;&quot;&gt;&lt;br&gt;&lt;/span&gt;&lt;/font&gt;&lt;/p&gt;&lt;p style=&quot;margin: 0px 0px 0px 4px;&quot;&gt;&lt;font face=&quot;RY7z2Xwn7kv8BznoPx8B&quot; size=&quot;3&quot;&gt;&lt;span style=&quot;text-align: center; background-color: initial;&quot;&gt;&lt;br&gt;&lt;/span&gt;&lt;/font&gt;&lt;/p&gt;" style="verticalAlign=top;align=left;overflow=fill;html=1;whiteSpace=wrap;" vertex="1" parent="1">
          <mxGeometry x="990" y="130" width="330" height="170" as="geometry" />
        </mxCell>
        <mxCell id="SoKydbFPhLWMJiZauXh9-11" value="" style="endArrow=none;dashed=1;html=1;dashPattern=1 3;strokeWidth=2;rounded=0;" edge="1" parent="1">
          <mxGeometry width="50" height="50" relative="1" as="geometry">
            <mxPoint x="920" y="230" as="sourcePoint" />
            <mxPoint x="990" y="230" as="targetPoint" />
          </mxGeometry>
        </mxCell>
        <mxCell id="SoKydbFPhLWMJiZauXh9-14" value="" style="endArrow=classic;html=1;rounded=0;" edge="1" parent="1">
          <mxGeometry width="50" height="50" relative="1" as="geometry">
            <mxPoint x="920" y="230" as="sourcePoint" />
            <mxPoint x="910" y="230" as="targetPoint" />
          </mxGeometry>
        </mxCell>
        <mxCell id="SoKydbFPhLWMJiZauXh9-15" value="" style="endArrow=none;html=1;rounded=0;exitX=1.002;exitY=0.94;exitDx=0;exitDy=0;entryX=0.009;entryY=0.722;entryDx=0;entryDy=0;entryPerimeter=0;exitPerimeter=0;" edge="1" parent="1" source="SoKydbFPhLWMJiZauXh9-2" target="trxvL033FlDiKAkXJnke-6">
          <mxGeometry width="50" height="50" relative="1" as="geometry">
            <mxPoint x="630" y="250" as="sourcePoint" />
            <mxPoint x="680" y="200" as="targetPoint" />
          </mxGeometry>
        </mxCell>
        <mxCell id="SoKydbFPhLWMJiZauXh9-16" value="0...1" style="text;html=1;align=center;verticalAlign=middle;whiteSpace=wrap;rounded=0;" vertex="1" parent="1">
          <mxGeometry x="480" y="205" width="60" height="30" as="geometry" />
        </mxCell>
        <mxCell id="SoKydbFPhLWMJiZauXh9-17" value="" style="endArrow=none;dashed=1;html=1;dashPattern=1 3;strokeWidth=2;rounded=0;" edge="1" parent="1">
          <mxGeometry width="50" height="50" relative="1" as="geometry">
            <mxPoint x="1154.29" y="130" as="sourcePoint" />
            <mxPoint x="1154.29" y="20" as="targetPoint" />
            <Array as="points">
              <mxPoint x="1154" y="60" />
            </Array>
          </mxGeometry>
        </mxCell>
        <mxCell id="SoKydbFPhLWMJiZauXh9-18" value="" style="endArrow=none;dashed=1;html=1;dashPattern=1 3;strokeWidth=2;rounded=0;" edge="1" parent="1">
          <mxGeometry width="50" height="50" relative="1" as="geometry">
            <mxPoint x="1160" y="20" as="sourcePoint" />
            <mxPoint x="320" y="20" as="targetPoint" />
          </mxGeometry>
        </mxCell>
        <mxCell id="SoKydbFPhLWMJiZauXh9-19" value="" style="endArrow=none;dashed=1;html=1;dashPattern=1 3;strokeWidth=2;rounded=0;" edge="1" parent="1">
          <mxGeometry width="50" height="50" relative="1" as="geometry">
            <mxPoint x="327" y="50" as="sourcePoint" />
            <mxPoint x="327" y="20" as="targetPoint" />
          </mxGeometry>
        </mxCell>
        <mxCell id="SoKydbFPhLWMJiZauXh9-20" value="" style="endArrow=classic;html=1;rounded=0;" edge="1" parent="1">
          <mxGeometry width="50" height="50" relative="1" as="geometry">
            <mxPoint x="327" y="53" as="sourcePoint" />
            <mxPoint x="327" y="63" as="targetPoint" />
          </mxGeometry>
        </mxCell>
        <mxCell id="SoKydbFPhLWMJiZauXh9-21" value="&lt;span style=&quot;font-weight: 400;&quot;&gt;orderStatusUpdate&lt;/span&gt;&lt;span style=&quot;font-weight: 400; text-wrap: nowrap; background-color: initial; color: rgba(0, 0, 0, 0); font-family: monospace; text-align: start; font-size: 0px;&quot;&gt;%3CmxGraphModel%3E%3Croot%3E%3CmxCell%20id%3D%220%22%2F%3E%3CmxCell%20id%3D%221%22%20parent%3D%220%22%2F%3E%3CmxCell%20id%3D%222%22%20value%3D%22%26amp%3Blt%3B%26amp%3Blt%3Binterface%26amp%3Bgt%3B%26amp%3Bgt%3B%26lt%3Bdiv%26gt%3B%3AorderIndex%26lt%3B%2Fdiv%26gt%3B%22%20style%3D%22rounded%3D0%3BwhiteSpace%3Dwrap%3Bhtml%3D1%3B%22%20vertex%3D%221%22%20parent%3D%221%22%3E%3CmxGeometry%20x%3D%22141.25%22%20y%3D%2260%22%20width%3D%22120%22%20height%3D%2240%22%20as%3D%22geometry%22%2F%3E%3C%2FmxCell%3E%3C%2Froot%3E%3C%2FmxGraphModel%3E&lt;/span&gt;" style="swimlane;fontStyle=1;align=center;verticalAlign=top;childLayout=stackLayout;horizontal=1;startSize=26;horizontalStack=0;resizeParent=1;resizeParentMax=0;resizeLast=0;collapsible=1;marginBottom=0;whiteSpace=wrap;html=1;" vertex="1" parent="1">
          <mxGeometry x="180" y="310" width="290" height="150" as="geometry" />
        </mxCell>
        <mxCell id="SoKydbFPhLWMJiZauXh9-22" value="&lt;font style=&quot;font-size: 14px;&quot;&gt;-&amp;nbsp; handletime: String&lt;/font&gt;&lt;div&gt;&lt;font size=&quot;3&quot;&gt;-&amp;nbsp; handeleresult: String&lt;/font&gt;&lt;/div&gt;&lt;div&gt;&lt;font size=&quot;3&quot;&gt;-&amp;nbsp; newStatus: String&lt;br&gt;&lt;/font&gt;&lt;div&gt;&lt;font size=&quot;3&quot;&gt;&lt;br&gt;&lt;/font&gt;&lt;/div&gt;&lt;div&gt;&lt;font size=&quot;3&quot;&gt;&lt;br&gt;&lt;/font&gt;&lt;/div&gt;&lt;div&gt;&lt;br&gt;&lt;/div&gt;&lt;/div&gt;" style="text;strokeColor=none;fillColor=none;align=left;verticalAlign=top;spacingLeft=4;spacingRight=4;overflow=hidden;rotatable=0;points=[[0,0.5],[1,0.5]];portConstraint=eastwest;whiteSpace=wrap;html=1;" vertex="1" parent="SoKydbFPhLWMJiZauXh9-21">
          <mxGeometry y="26" width="290" height="64" as="geometry" />
        </mxCell>
        <mxCell id="SoKydbFPhLWMJiZauXh9-23" value="" style="line;strokeWidth=1;fillColor=none;align=left;verticalAlign=middle;spacingTop=-1;spacingLeft=3;spacingRight=3;rotatable=0;labelPosition=right;points=[];portConstraint=eastwest;strokeColor=inherit;" vertex="1" parent="SoKydbFPhLWMJiZauXh9-21">
          <mxGeometry y="90" width="290" height="8" as="geometry" />
        </mxCell>
        <mxCell id="SoKydbFPhLWMJiZauXh9-24" value="&lt;font style=&quot;font-size: 14px;&quot;&gt;+ is_application_handled(StudentId,orderId)&lt;/font&gt;" style="text;strokeColor=none;fillColor=none;align=left;verticalAlign=top;spacingLeft=4;spacingRight=4;overflow=hidden;rotatable=0;points=[[0,0.5],[1,0.5]];portConstraint=eastwest;whiteSpace=wrap;html=1;" vertex="1" parent="SoKydbFPhLWMJiZauXh9-21">
          <mxGeometry y="98" width="290" height="52" as="geometry" />
        </mxCell>
        <mxCell id="SoKydbFPhLWMJiZauXh9-26" value="0...1" style="text;html=1;align=center;verticalAlign=middle;whiteSpace=wrap;rounded=0;" vertex="1" parent="1">
          <mxGeometry x="480" y="290" width="60" height="30" as="geometry" />
        </mxCell>
      </root>
    </mxGraphModel>
  </diagram>
</mxfile>
